<svg xmlns="http://www.w3.org/2000/svg" width="1200" height="560" viewBox="0 0 1200 560" role="img" aria-labelledby="title description">
  <title id="title">Hathiqu Musammil - developer profile</title>
  <desc id="description">A dark terminal-inspired profile banner for an undergraduate student at SLTC University, focused on web development, data visualization, coding, and Graphic Designing .</desc>
  <defs>
    <linearGradient id="background" x1="0" y1="0" x2="1" y2="1">
      <stop offset="0" stop-color="#101823"/>
      <stop offset="0.55" stop-color="#11131f"/>
      <stop offset="1" stop-color="#1b1730"/>
    </linearGradient>
    <linearGradient id="panel" x1="0" y1="0" x2="1" y2="1">
      <stop offset="0" stop-color="#202d3a" stop-opacity="0.86"/>
      <stop offset="1" stop-color="#1a1c2c" stop-opacity="0.78"/>
    </linearGradient>
    <linearGradient id="accent" x1="0" y1="0" x2="1" y2="0">
      <stop offset="0" stop-color="#59e3d1"/>
      <stop offset="1" stop-color="#a99bff"/>
    </linearGradient>
    <pattern id="grid" width="32" height="32" patternUnits="userSpaceOnUse">
      <path d="M32 0H0V32" fill="none" stroke="#a8bbd2" stroke-opacity="0.055" stroke-width="1"/>
    </pattern>
    <filter id="soft-glow" x="-40%" y="-40%" width="180%" height="180%">
      <feGaussianBlur stdDeviation="24"/>
    </filter>
  </defs>
  <rect width="1200" height="560" rx="24" fill="url(#background)"/>
  <rect width="1200" height="560" rx="24" fill="url(#grid)"/>
  <circle cx="1040" cy="82" r="100" fill="#8d79ff" fill-opacity="0.12" filter="url(#soft-glow)"/>
  <circle cx="192" cy="520" r="112" fill="#46d9cb" fill-opacity="0.09" filter="url(#soft-glow)"/>

  <g font-family="ui-monospace, SFMono-Regular, Menlo, Consolas, monospace">
    <path d="M62 55h26l13 13-13 13H62l13-13z" fill="none" stroke="url(#accent)" stroke-width="2"/>
    <path d="m72 68 5 5 10-11" fill="none" stroke="#8ce8dc" stroke-linecap="round" stroke-linejoin="round" stroke-width="2"/>
    <text x="114" y="73" fill="#d4deeb" font-size="14">HATHIQ / PROFILE</text>
    <text x="1138" y="72" fill="#8695aa" font-size="12" text-anchor="end">README.md</text>
    <path d="M62 94h1076" stroke="#92a3ba" stroke-opacity="0.18"/>

    <rect x="62" y="116" width="548" height="380" rx="14" fill="url(#panel)" stroke="url(#accent)" stroke-opacity="0.34"/>
    <path d="M63 130a13 13 0 0 1 13-13h520a13 13 0 0 1 13 13" fill="none" stroke="#fff" stroke-opacity="0.1"/>
    <text x="92" y="157" fill="#68e0d1" font-size="12">UNDERGRADUATE · WEB DEVELOPMENT</text>
    <path d="M92 170h44" stroke="url(#accent)" stroke-linecap="round" stroke-width="2"/>
    <rect x="520" y="177" width="62" height="62" rx="17" fill="url(#accent)" fill-opacity="0.12" stroke="url(#accent)" stroke-opacity="0.58"/>
    <path d="M531 188h40v40h-40z" fill="none" stroke="#a7b7ce" stroke-opacity="0.2"/>
    <text x="551" y="215" fill="#e4f4f2" font-size="17" font-weight="700" text-anchor="middle">HM</text>
    <text x="92" y="211" fill="#f1f5fb" font-size="38" font-weight="700">Hathiqu Musammil</text>
    <text x="92" y="245" fill="#c4d0df" font-size="17">Undergraduate Student at SLTC University</text>
    <text x="92" y="274" fill="#a9b7c9" font-size="15">Aspiring IT Professional</text>
    <path d="M92 300h484" stroke="#a5b5ca" stroke-opacity="0.2"/>

    <text x="92" y="333" fill="#9d8cff" font-size="12">EDUCATION</text>
    <text x="92" y="359" fill="#e2eaf4" font-size="16">Bachelor of Applied Information Technology</text>
    <text x="92" y="382" fill="#aebbd0" font-size="14">SLTC Research University</text>
    <text x="92" y="425" fill="#9d8cff" font-size="12">INTERESTS</text>
    <text x="92" y="452" fill="#d6dfeb" font-size="14">Web development  /  Data visualization</text>
    <text x="92" y="475" fill="#d6dfeb" font-size="14">Coding  /  Graphic Designing </text>

    <rect x="636" y="116" width="502" height="380" rx="14" fill="#111923" fill-opacity="0.82" stroke="url(#accent)" stroke-opacity="0.38"/>
    <path d="M650 117h474" stroke="url(#accent)" stroke-opacity="0.68"/>
    <path d="M637 158h500" stroke="#a6b6cd" stroke-opacity="0.18"/>
    <circle cx="662" cy="138" r="5" fill="#ff7f86"/>
    <circle cx="680" cy="138" r="5" fill="#f4c66c"/>
    <circle cx="698" cy="138" r="5" fill="#65d5ba"/>
    <text x="887" y="143" fill="#91a0b4" font-size="12" text-anchor="middle">focus.js</text>
    <path d="M840 157h94" stroke="url(#accent)" stroke-linecap="round" stroke-width="2"/>
    <text x="663" y="194" fill="#77879c" font-size="13">01</text>
    <text x="697" y="194" fill="#c7d0dd" font-size="14"><tspan fill="#bdabff">const</tspan> profile = {</text>
    <text x="663" y="229" fill="#77879c" font-size="13">02</text>
    <text x="697" y="229" fill="#aebbd0" font-size="14">  education: <tspan fill="#83dfd4">"BAIT · SLTC"</tspan>,</text>
    <text x="663" y="264" fill="#77879c" font-size="13">03</text>
    <text x="697" y="264" fill="#aebbd0" font-size="14">  focus: [</text>
    <text x="663" y="299" fill="#77879c" font-size="13">04</text>
    <text x="697" y="299" fill="#83dfd4" font-size="14">    "web development",</text>
    <text x="663" y="334" fill="#77879c" font-size="13">05</text>
    <text x="697" y="334" fill="#83dfd4" font-size="14">    "data visualization",</text>
    <text x="663" y="369" fill="#77879c" font-size="13">06</text>
    <text x="697" y="369" fill="#83dfd4" font-size="14">    "coding", "Graphic Designing "</text>
    <text x="663" y="404" fill="#77879c" font-size="13">07</text>
    <text x="697" y="404" fill="#aebbd0" font-size="14">  ],</text>
    <text x="663" y="439" fill="#77879c" font-size="13">08</text>
    <text x="697" y="439" fill="#aebbd0" font-size="14">  tools: [<tspan fill="#83dfd4">"HTML", "CSS", "JavaScript"</tspan>]</text>
    <text x="663" y="474" fill="#77879c" font-size="13">09</text>
    <text x="697" y="474" fill="#c7d0dd" font-size="14">};</text>
    <rect x="724" y="461" width="7" height="16" rx="1" fill="#72e0d0">
      <animate attributeName="opacity" values="1;0.18;1" dur="1.1s" repeatCount="indefinite"/>
    </rect>
  </g>
</svg>